<svg width="1000" height="1000" xmlns="http://www.w3.org/2000/svg" >
<polygon points="104.333,293.667 118,241 166.333,254.333 193.667,300 
	185.333,316.333 "/>
<polygon points="104.333,293.667 185,316.333 172,356.667 92.667,335.333 
	"/>
<polygon points="197.333,257.667 234.333,121 283.667,135.667 247,272 
	215.667,288.667 "/>
<polygon points="313,142.333 394.333,164.667 382.667,207.667 
	413.667,217.333 402,260 469,278.667 440.333,385.667 354.333,361.333 354,345 351.333,333.333 345.667,325.333 337.667,316.333 
	326,311 320.333,308.333 310.333,308 300,305.667 292,302 283.667,295 279.667,285 277.333,272 "/>
<polygon points="354.333,361.333 359.864,385.667 368.75,405.25 
	386.333,421 429.667,432 451,420.667 459,390.667 "/>
<polygon points="440.333,385.667 459,390.667 465.667,363.667 448,357.667 
	"/>
<polygon points="449.667,273.333 462,230 500,240 487.667,283.667 "/>
<polygon points="462,230 473.917,185.333 511,196.333 500,240 "/>
<polygon points="533.334,271.667 551.667,206.667 588.334,217.333 
	568.55,282.137 "/>
<polygon points="533.334,271.667 515.667,340.333 570.333,355 
	575.667,335.667 556.667,330 568.667,281.667 "/>
<polygon points="515.667,340.333 491.667,427.667 506,454.333 
	541.667,463.333 570.333,355 "/>
<polygon points="575.667,335.667 622.667,348.5 629.333,328.333 
	663,338.417 689.333,244.167 740.333,258.667 800.667,400.333 689.667,369 671,438 659.333,434 644.334,490.667 541.667,463.333 "/>
<polygon points="690,369.333 800.667,400 833,472 793.334,505.333 
	774.334,496.667 753.334,490.667 734.667,487.667 716.667,488 699.334,489.333 685.667,493.667 673.334,498.667 644,490.667 
	659.772,434.15 671,438 "/>
<polygon points="822.25,533.667 834.625,546.333 843.979,557.667 
	849.655,571 854.912,585 857.5,601.667 857.5,617 855.333,633.667 851.333,646 975,678.667 983,647.667 965,642 964,627 
	959.333,609 955.333,597 948.666,582.333 940,568 930.333,555.333 921,544.667 912.666,537 919.333,526 913.333,513.333 
	877.333,549.667 839,517 "/>
<polygon points="802.333,706.666 814,699 822.25,692.333 828.666,694.333 
	844.666,703 902.625,740.333 983,761 966,822.666 953.333,818.333 948,845.333 940.666,869.666 934,887 928,900.333 
	910.333,894.666 918.666,830 906,826.666 907.666,819.333 781.666,783.666 "/>
<polygon points="667.667,718 690.333,695.667 715.667,712 736.667,717.333 
	759.667,719.333 784.667,714.667 762.3,799.445 690,779.333 "/>
<polygon points="667.667,718 620,765 608,814 674.667,832 690,779.333 "/>
<polygon points="690,779.333 784.667,805.667 770,857.333 674.667,832 "/>
<polygon points="468.167,750.834 496.667,757.5 521,757.5 543,754.167 
	561,750.834 580.334,742.333 598.334,731 619.334,711.667 487.333,676 "/>
<polygon points="524.333,685.333 543.75,614 639.333,639.333 642.333,655 
	649,669 656.667,678.667 619.334,711.666 "/>
<polygon points="410.333,735.334 430.667,660 461.667,669.334 441.667,744 
	"/>
<polygon points="430.483,660.679 439.667,626 481.333,637.333 472.333,672 
	"/>
<polygon points="439.584,626.311 476.333,488.667 534,505.333 
	511.667,583.667 497.667,580.667 481.333,637.667 "/>
<polygon points="534,505.333 643.875,534.333 654.354,544.667 
	658.5,557.667 658.5,569 652.667,575.333 644,592.333 638.334,603.667 637,618.333 521,586 538,518 531.049,515.684 "/>
<polygon points="355.333,559.334 410.333,574.334 370,722.334 337,711.666 
	354.333,649 332.333,644 "/>
<polygon points="355.411,559.039 382,463.333 436,478 410.333,574.334 "/>
<polygon points="244.333,530.333 254.667,510.667 266,496.667 277.333,486 
	290.667,477.333 305.333,469.667 320.333,463.333 335,461 354.333,459.667 371.333,460.667 382,463.333 355.333,559.334 "/>
<polygon points="244.417,530 237.792,546.667 234.5,564.334 234.5,581 
	236.667,600.667 242.333,621 250,636.667 261.667,652.334 283.333,672 316.333,549.145 "/>
<polygon points="205,705.667 218,662 205,640.834 196.333,618.333 
	193,593.333 195.333,559.334 203,530 218,502 125.333,476.333 105.667,545.667 41.333,530 8,652.333 "/>
<polygon points="174,463.333 182.333,432 270.333,455.667 254.667,465 
	244.333,470.667 234.5,480.667 "/>
<polygon points="448,357.667 465.667,363.667 487.667,283.667 469,278.591 
	"/>
<polygon points="92.667,335.333 83.333,372 65.667,436 125,452 
	134,418.667 162.667,427 165,393.667 172,356.667 "/>
</svg>
